# xmcd
#
# Track frame offsets:
#	150
#	24225
#	58350
#	74925
#	108000
#	119475
#	140550
#	169725
#	191025
#	201375
#	218475
#	235425
#	254250
#	264150
#	274050
#	287100
#	299025
#
# Disc length: 4130 seconds
#
# Revision: 5
# Processed by: cddbd v1.5.2PL0 Copyright (c) Steve Scherf et al.
# Submitted via: EasyCDDAExtractor 12.0.1.1
#
DISCID=1b102011
DTITLE=Various Artist - The Latin Masters
DYEAR=1900
DGENRE=Latin
TTITLE0=Q&Q - SB 52 - Batuca Gum
TTITLE1=Sartorello - SB 53 - Move Baby Move
TTITLE2=Los Chicos - SB 52 - Mambo Trobical
TTITLE3=Jubara - SB 52 - Ritmo De Bom Bom
TTITLE4=Mongo Santamaria - CC 30 - Watermelon Man
TTITLE5=Matt Bianco - CC 32 - Buddy Love
TTITLE6=Disco Circus - CC 32 - Dig It
TTITLE7=Matt Bianco - CC 32 - Can't Stop This Feeling
TTITLE8=Engelbert Humperdinck - RB 23 - Stardust
TTITLE9=Samanta Sang - RB 24 - Emotion
TTITLE10=David Soul - RB 25 - Going With My Eyes Open
TTITLE11=China Crisis - RB 26 - Without The Love
TTITLE12=Champagne - PD 60 - Vamos Amigos
TTITLE13=Bobby Day - JV 43 - Over and Over
TTITLE14=Rocky Sharpe - JV 43 - Fools Fall In Love
TTITLE15=Bobby Day - JV 43 - Rockin' Robin
TTITLE16=Rocky Sharpe - JV 43 - Love Love Love
EXTD=
EXTT0=
EXTT1=
EXTT2=
EXTT3=
EXTT4=
EXTT5=
EXTT6=
EXTT7=
EXTT8=
EXTT9=
EXTT10=
EXTT11=
EXTT12=
EXTT13=
EXTT14=
EXTT15=
EXTT16=
PLAYORDER=
